Coordinates
version=1
nRows=21
nColumns=22
inDegrees=yes

Units are S.I. units (second, meters, Newtons, ...)
If the header above contains a line with 'inDegrees', this indicates whether rotational values are in degrees (yes) or radians (no).

endheader
time	pelvis_tilt	pelvis_list	pelvis_rotation	pelvis_tx	pelvis_ty	pelvis_tz	hip_flexion_r	hip_adduction_r	hip_rotation_r	knee_angle_r	ankle_angle_r	subtalar_angle_r	hip_flexion_l	hip_adduction_l	hip_rotation_l	knee_angle_l	ankle_angle_l	subtalar_angle_l	lumbar_extension	lumbar_bending	lumbar_rotation
      0.01000000	    -12.53729507	     -1.65549424	     -3.59463889	     -0.82583956	      0.98011216	      0.27195091	     17.89332785	      3.37580966	     -6.61947526	    -16.27015516	     16.50987933	     -5.58587420	     19.39142366	     -2.67124849	     -5.46678082	    -18.56617611	     18.29197372	     -1.23021726	      6.06984583	      4.62306844	      1.84451824
      0.02000000	    -12.53123464	     -1.66416268	     -3.59320119	     -0.82591799	      0.98010588	      0.27207819	     17.88187472	      3.39430577	     -6.61714934	    -16.25596253	     16.50225650	     -5.58531768	     19.40050560	     -2.68928100	     -5.46769012	    -18.58836093	     18.29684383	     -1.24048562	      6.07583439	      4.59881594	      1.87419586
      0.03000000	    -12.52388671	     -1.66890193	     -3.60078481	     -0.82602229	      0.98009510	      0.27223788	     17.88096941	      3.41159051	     -6.60732101	    -16.25975212	     16.50020777	     -5.58626107	     19.40398282	     -2.70607694	     -5.46816590	    -18.60246574	     18.30573596	     -1.24838100	      6.07959095	      4.56407027	      1.92911895
      0.04000000	    -12.51991417	     -1.66563977	     -3.63038292	     -0.82615400	      0.98006896	      0.27244568	     17.89797210	      3.42915428	     -6.55930517	    -16.28646281	     16.50633864	     -5.59300660	     19.40741163	     -2.72492720	     -5.50628532	    -18.61063155	     18.32394559	     -1.26149551	      6.08468783	      4.51695584	      2.01741562
      0.05000000	    -12.51116995	     -1.67083158	     -3.62367681	     -0.82629771	      0.98005085	      0.27260277	     17.89729812	      3.44368712	     -6.55819002	    -16.28898458	     16.50919310	     -5.59469460	     19.42040650	     -2.73942702	     -5.49418918	    -18.63514513	     18.32542431	     -1.26245642	      6.08385151	      4.46981544	      2.07519423
      0.06000000	    -12.51136634	     -1.67125703	     -3.65921242	     -0.82645403	      0.98000181	      0.27282072	     17.93084896	      3.46536068	     -6.51892458	    -16.33448424	     16.52188031	     -5.60810081	     19.43776648	     -2.76423853	     -5.52505110	    -18.66222804	     18.34991047	     -1.26386492	      6.09306546	      4.42425036	      2.17592432
      0.07000000	    -12.50335667	     -1.67654640	     -3.66225612	     -0.82659788	      0.97997725	      0.27297529	     17.93529538	      3.48090794	     -6.51724801	    -16.34220019	     16.52407779	     -5.61201517	     19.45510151	     -2.78046058	     -5.51364841	    -18.69861472	     18.35292598	     -1.26312345	      6.09326611	      4.37745775	      2.24348002
      0.08000000	    -12.50543669	     -1.68233639	     -3.69510382	     -0.82676210	      0.97992445	      0.27316304	     17.97317108	      3.50493377	     -6.48446009	    -16.39080975	     16.53350559	     -5.62719906	     19.47887588	     -2.81027689	     -5.55259194	    -18.73080544	     18.38065939	     -1.26033373	      6.09913374	      4.33843454	      2.34040444
      0.09000000	    -12.50345114	     -1.68498130	     -3.71859050	     -0.82690556	      0.97988673	      0.27331998	     17.99527300	      3.52201570	     -6.46107652	    -16.41871982	     16.53720499	     -5.63880449	     19.50008830	     -2.83093613	     -5.57199531	    -18.76673688	     18.39293441	     -1.25523821	      6.10258618	      4.29597340	      2.42206092
      0.10000000	    -12.49252608	     -1.68896091	     -3.72959941	     -0.82701865	      0.97987043	      0.27343360	     17.99754158	      3.53389298	     -6.45849013	    -16.43066980	     16.53905414	     -5.64225110	     19.51118735	     -2.84462683	     -5.56692132	    -18.80233002	     18.39854301	     -1.25372800	      6.09841488	      4.25709199	      2.48007944
      0.11000000	    -12.47887454	     -1.69236603	     -3.75286932	     -0.82713619	      0.97985370	      0.27355399	     18.00656513	      3.54754990	     -6.44456639	    -16.45987419	     16.54360049	     -5.64779291	     19.51808175	     -2.86205300	     -5.57886008	    -18.83793690	     18.41251459	     -1.25199929	      6.08740366	      4.22230195	      2.54595819
      0.12000000	    -12.46738438	     -1.69068282	     -3.79172120	     -0.82724169	      0.97983487	      0.27368892	     18.02077501	      3.56135586	     -6.40223114	    -16.49562808	     16.55539679	     -5.65985446	     19.51942386	     -2.88170581	     -5.63525651	    -18.86143561	     18.43735355	     -1.24681493	      6.07721834	      4.18575827	      2.61851062
      0.13000000	    -12.45589589	     -1.69334003	     -3.79702400	     -0.82734064	      0.97982451	      0.27376098	     18.01892037	      3.56893166	     -6.39772803	    -16.50248695	     16.55557787	     -5.66196023	     19.52880833	     -2.88976270	     -5.62574924	    -18.89272272	     18.43816058	     -1.24551254	      6.06848523	      4.15208440	      2.65430174
      0.14000000	    -12.44304155	     -1.69602264	     -3.80941317	     -0.82745043	      0.97981048	      0.27383537	     18.02331150	      3.57726274	     -6.38946424	    -16.52353726	     16.55939946	     -5.66644622	     19.53942295	     -2.90013450	     -5.62319599	    -18.93061669	     18.44545283	     -1.24451254	      6.05426886	      4.12361413	      2.69171070
      0.15000000	    -12.43358184	     -1.69971337	     -3.81909482	     -0.82756941	      0.97978955	      0.27390715	     18.03179352	      3.58665167	     -6.38011317	    -16.54482771	     16.56591316	     -5.67227060	     19.55517206	     -2.91196867	     -5.62470063	    -18.96912486	     18.45534753	     -1.24392480	      6.04142888	      4.09749703	      2.72314696
      0.16000000	    -12.42880558	     -1.70465445	     -3.82792487	     -0.82771152	      0.97975988	      0.27397597	     18.04775162	      3.59751912	     -6.36877833	    -16.56886724	     16.57406521	     -5.68014060	     19.58155403	     -2.92564917	     -5.62490004	    -19.01629257	     18.46682599	     -1.24329715	      6.02956874	      4.07527421	      2.75137915
      0.17000000	    -12.47732909	     -1.72075932	     -3.84669757	     -0.82790888	      0.97962919	      0.27407280	     18.13417989	      3.62753779	     -6.35002521	    -16.61472052	     16.59464382	     -5.71294888	     19.67936538	     -2.96370855	     -5.65714444	    -19.08662056	     18.50671910	     -1.23670534	      6.07607985	      4.07241293	      2.77430311
      0.18000000	    -12.47660845	     -1.72335679	     -3.84017597	     -0.82807636	      0.97960295	      0.27411590	     18.14843426	      3.63343109	     -6.33962638	    -16.62405809	     16.58702515	     -5.71547810	     19.71328254	     -2.96798582	     -5.62964147	    -19.13161198	     18.50015979	     -1.23510114	      6.06439555	      4.04399664	      2.79354016
      0.19000000	    -12.56189238	     -1.74633081	     -3.84123572	     -0.82832287	      0.97941639	      0.27416766	     18.28046147	      3.66585885	     -6.33888557	    -16.67922028	     16.59835004	     -5.74480657	     19.86648574	     -3.00747104	     -5.62649567	    -19.22326565	     18.52474864	     -1.22910818	      6.15034887	      4.05079788	      2.78887337
      0.20000000	    -12.56196062	     -1.74519961	     -3.83685346	     -0.82848445	      0.97940068	      0.27417967	     18.29299040	      3.66647955	     -6.32518385	    -16.68284613	     16.59016774	     -5.74521628	     19.89575099	     -3.00625807	     -5.60554506	    -19.25754996	     18.52047179	     -1.22838446	      6.13773638	      4.02234654	      2.80895659
      0.21000000	    -12.61979383	     -1.74615162	     -3.85876084	     -0.82867916	      0.97927857	      0.27422029	     18.39142399	      3.67892580	     -6.29115809	    -16.73105250	     16.59979677	     -5.75897836	     19.99643080	     -3.02349794	     -5.62947574	    -19.31494265	     18.52934723	     -1.22867491	      6.19535168	      4.00758566	      2.83114807
